# Blender v3.2.2 OBJ File: ''
# www.blender.org
mtllib gloves.mtl
o Cube
v -1.235935 0.320253 -0.352607
v -1.482172 -0.904585 -0.251606
v -1.236454 0.323865 0.212736
v -1.482170 -0.904585 0.157448
v -2.965677 0.261221 -0.328911
v -2.869372 -0.790526 -0.250575
v -2.931506 0.265568 0.176977
v -2.869250 -0.790531 0.156411
v -1.393675 1.040987 -0.338233
v -1.401380 1.041140 0.126146
v -3.012771 0.720547 -0.338190
v -2.992136 0.742814 0.116084
v -2.213488 -0.902084 -0.307528
v -2.197976 0.403245 0.206250
v -2.213707 -0.901868 0.210591
v -2.155078 0.344580 -0.403231
v -2.219489 1.208576 0.109490
v -2.217912 1.183477 -0.363234
v -1.184541 -0.363962 -0.300991
v -2.894577 -0.275399 0.190645
v -1.184533 -0.363756 0.204054
v -2.899126 -0.275434 -0.290422
v -2.126367 -0.331209 -0.358235
v -2.133523 -0.323277 0.249912
v -2.603244 -0.841549 -0.303117
v -2.591879 0.339021 0.193593
v -2.676284 1.001191 0.088475
v -2.603116 -0.841483 0.206383
v -2.616147 0.312400 -0.396880
v -2.672539 0.968242 -0.362992
v -2.579860 -0.295844 -0.352478
v -2.575686 -0.293038 0.243547
v -1.809492 -0.911235 0.206572
v -1.690686 0.331269 -0.399060
v -1.754542 1.208863 -0.361019
v -1.809513 -0.911394 -0.303204
v -1.693178 0.376391 0.227339
v -1.751871 1.228574 0.120441
v -1.645490 -0.355018 0.248638
v -1.645751 -0.360948 -0.353598
v -1.316397 1.626724 -0.348996
v -1.317637 1.626494 -0.020498
v -1.568814 1.694015 -0.351075
v -1.568400 1.696373 -0.020842
v -1.864250 1.810866 -0.023394
v -2.117496 1.814376 -0.024383
v -2.117935 1.811644 -0.353060
v -1.864718 1.808429 -0.352942
v -2.605123 1.567256 -0.356297
v -2.351740 1.622358 -0.356235
v -2.351354 1.625151 -0.037772
v -2.606311 1.571740 -0.041095
v -2.904887 1.181504 -0.026832
v -3.124864 1.118954 -0.022537
v -3.127614 1.115930 -0.358407
v -2.903760 1.177009 -0.360546
v -1.237305 2.059461 -0.350234
v -1.237342 2.059451 -0.072011
v -1.456047 2.095119 -0.350317
v -1.456033 2.095184 -0.072018
v -1.862274 2.318986 -0.075174
v -2.073195 2.328017 -0.075203
v -2.073212 2.327947 -0.352538
v -1.862287 2.318921 -0.352535
v -1.206579 2.292962 -0.350069
v -1.206579 2.292962 -0.077996
v -1.415469 2.320250 -0.350071
v -1.415469 2.320250 -0.077996
v -1.202832 2.597916 -0.349037
v -1.202832 2.597916 -0.079218
v -1.367706 2.622115 -0.349037
v -1.367706 2.622115 -0.079218
v -1.219571 2.712574 -0.339007
v -1.219571 2.712574 -0.088794
v -1.328444 2.728878 -0.339007
v -1.328444 2.728878 -0.088794
v -1.849603 2.571265 -0.081213
v -2.051870 2.580820 -0.081213
v -2.051870 2.580820 -0.352326
v -1.849603 2.571265 -0.352326
v -1.840214 2.917630 -0.082434
v -2.008644 2.927028 -0.082434
v -2.008644 2.927027 -0.351298
v -1.840214 2.917630 -0.351298
v -1.857174 3.024952 -0.091976
v -1.975942 3.032718 -0.091976
v -1.975942 3.032717 -0.341303
v -1.857174 3.024952 -0.341303
v -2.586566 2.072207 -0.356386
v -2.384554 2.077420 -0.356382
v -2.384537 2.077491 -0.091877
v -2.586606 2.072332 -0.091979
v -2.575048 2.323483 -0.356226
v -2.386684 2.318980 -0.356226
v -2.386684 2.318980 -0.098223
v -2.575048 2.323483 -0.098223
v -2.550800 2.669243 -0.355248
v -2.382332 2.663911 -0.355248
v -2.382332 2.663911 -0.099410
v -2.550800 2.669243 -0.099410
v -2.524887 2.783928 -0.345738
v -2.398872 2.779491 -0.345738
v -2.398872 2.779491 -0.108491
v -2.524887 2.783928 -0.108491
v -2.983202 1.440428 -0.073996
v -3.166458 1.425479 -0.073863
v -3.166537 1.425397 -0.361918
v -2.983163 1.440303 -0.362001
v -3.002373 1.619521 -0.079866
v -3.176702 1.611155 -0.079866
v -3.176702 1.611155 -0.361982
v -3.002373 1.619521 -0.361983
v -3.029035 1.917571 -0.081124
v -3.176616 1.909838 -0.081124
v -3.176616 1.909838 -0.360921
v -3.029035 1.917571 -0.360921
v -3.056500 2.018293 -0.091054
v -3.158245 2.011917 -0.091054
v -3.158245 2.011917 -0.350520
v -3.056500 2.018293 -0.350520
v -0.875790 0.197295 -0.326953
v -0.875801 0.197394 0.186696
v -0.902146 -0.133229 -0.281414
v -0.902146 -0.133229 0.183072
v -1.038860 0.622548 -0.353798
v -1.038872 0.622647 0.063187
v -0.801264 0.536452 -0.351439
v -0.801264 0.536452 0.060044
v -0.932366 0.841654 -0.355270
v -0.932366 0.841654 0.019864
v -0.719167 0.752657 -0.355171
v -0.719167 0.752657 0.019718
v -0.628561 1.327422 -0.340262
v -0.628561 1.327422 0.000889
v -0.501029 1.267282 -0.340262
v -0.501028 1.267282 0.000889
v -0.546406 1.117399 0.014118
v -0.728500 1.201384 0.014120
v -0.728500 1.201384 -0.353939
v -0.546406 1.117399 -0.353937
v -2.871540 -0.851077 -0.043673
v -1.249181 0.469317 -0.068604
v -3.033842 0.252054 -0.051148
v -1.434970 -0.950464 -0.042963
v -1.466736 1.001780 -0.080432
v -3.054437 0.676322 -0.066525
v -2.230642 1.367436 -0.115810
v -2.897583 -1.059118 -0.213421
v -1.100344 -0.468624 -0.043365
v -2.963743 -0.273625 -0.043350
v -1.534154 -1.184435 0.127970
v -2.694618 1.096062 -0.119947
v -1.749780 1.395767 -0.112527
v -1.536093 -1.170219 -0.213465
v -1.255323 1.610183 -0.178875
v -1.627184 1.725391 -0.181845
v -2.175323 1.830343 -0.184278
v -1.808477 1.823671 -0.184002
v -2.295906 1.647645 -0.192566
v -2.663876 1.570524 -0.192840
v -3.181159 1.104267 -0.184275
v -2.854755 1.196985 -0.187751
v -1.180341 2.050610 -0.208833
v -1.512734 2.104610 -0.208953
v -2.127855 2.331130 -0.211655
v -1.807703 2.317152 -0.211645
v -1.150525 2.285891 -0.211909
v -1.471514 2.327361 -0.211911
v -1.161162 2.592083 -0.212029
v -1.409268 2.628722 -0.212029
v -1.209787 2.716345 -0.211980
v -1.336982 2.735375 -0.211980
v -2.105896 2.583360 -0.214654
v -1.795577 2.568766 -0.214654
v -2.051059 2.929629 -0.214774
v -1.797767 2.915521 -0.214774
v -1.986037 3.037521 -0.214726
v -1.846504 3.028288 -0.214726
v -2.332496 2.078505 -0.222014
v -2.638741 2.072308 -0.222016
v -2.336880 2.317677 -0.225211
v -2.624853 2.324830 -0.225211
v -2.339827 2.662896 -0.225339
v -2.593281 2.670916 -0.225339
v -2.387351 2.783908 -0.225293
v -2.536036 2.789185 -0.225293
v -3.214091 1.422202 -0.215523
v -2.935950 1.443797 -0.215652
v -3.223155 1.609042 -0.218721
v -2.955927 1.621660 -0.218724
v -3.214047 1.908200 -0.218846
v -2.991632 1.919803 -0.218846
v -3.167183 2.015626 -0.218796
v -3.047964 2.023207 -0.218796
v -0.800213 0.179003 -0.066630
v -0.875348 -0.147308 -0.045000
v -1.093604 0.657114 -0.142485
v -0.741137 0.514430 -0.142490
v -0.988649 0.865830 -0.164787
v -0.662652 0.729053 -0.164789
v -0.636165 1.339186 -0.167069
v -0.486532 1.268580 -0.167069
v -0.499999 1.096426 -0.167046
v -0.774377 1.223366 -0.167046
v -2.897583 -1.059118 0.120323
v -2.238668 -1.161733 -0.253461
v -2.238668 -1.161733 0.158499
v -2.659283 -1.111919 -0.262971
v -2.659283 -1.111919 0.167695
v -1.815181 -1.184062 0.167697
v -1.815181 -1.184062 -0.262974
v -2.952901 -1.067212 -0.044504
v -1.474175 -1.186295 -0.044506
vt 0.625000 0.303241
vt 0.625000 0.250000
vt 0.625000 0.250000
vt 0.625000 0.303241
vt 0.499012 0.946759
vt 0.625000 0.946759
vt 0.625000 1.000000
vt 0.499012 1.000000
vt 0.499012 0.121383
vt 0.625000 0.121383
vt 0.499012 0.250000
vt 0.375000 0.438190
vt 0.375000 0.500000
vt 0.375000 0.500000
vt 0.375000 0.438190
vt 0.625000 0.750000
vt 0.499012 0.750000
vt 0.499012 0.750000
vt 0.625000 0.750000
vt 0.499012 0.438190
vt 0.625000 0.438190
vt 0.625000 0.500000
vt 0.499012 0.500000
vt 0.625000 0.121383
vt 0.625000 0.000000
vt 0.625000 0.000000
vt 0.625000 0.121383
vt 0.625000 0.811810
vt 0.625000 0.750000
vt 0.625000 0.811810
vt 0.625000 0.000000
vt 0.625000 0.628617
vt 0.625000 0.500000
vt 0.625000 0.628617
vt 0.625000 0.875000
vt 0.625000 0.875000
vt 0.625000 0.946759
vt 0.686810 0.628617
vt 0.686810 0.500000
vt 0.686810 0.500000
vt 0.686810 0.628617
vt 0.499012 0.303241
vt 0.625000 0.375000
vt 0.499012 0.375000
vt 0.375000 0.875000
vt 0.375000 0.946759
vt 0.375000 0.946759
vt 0.375000 0.875000
vt 0.499012 0.811810
vt 0.499012 0.875000
vt 0.625000 0.375000
vt 0.625000 0.438190
vt 0.375000 0.811810
vt 0.375000 0.303241
vt 0.375000 0.375000
vt 0.375000 0.628617
vt 0.499012 0.628617
vt 0.375000 0.750000
vt 0.375000 0.121383
vt 0.375000 0.250000
vt 0.375000 1.000000
vt 0.375000 0.811810
vt 0.375000 0.750000
vt 0.625000 1.000000
vt 0.625000 0.303241
vt 0.625000 0.375000
vt 0.625000 0.750000
vt 0.625000 0.811810
vt 0.375000 0.303241
vt 0.375000 0.250000
vt 0.625000 0.750000
vt 0.625000 0.811810
vt 0.686810 0.750000
vt 0.686810 0.750000
vt 0.686810 0.628617
vt 0.625000 0.438190
vt 0.625000 0.500000
vt 0.625000 0.628617
vt 0.686810 0.500000
vt 0.686810 0.628617
vt 0.625000 0.811810
vt 0.625000 0.875000
vt 0.625000 0.375000
vt 0.625000 0.438190
vt 0.750000 0.628617
vt 0.750000 0.750000
vt 0.750000 0.750000
vt 0.750000 0.628617
vt 0.625000 0.946759
vt 0.625000 0.875000
vt 0.625000 0.875000
vt 0.625000 0.946759
vt 0.821759 0.628617
vt 0.821759 0.750000
vt 0.821759 0.750000
vt 0.821759 0.628617
vt 0.750000 0.500000
vt 0.750000 0.500000
vt 0.750000 0.628617
vt 0.625000 0.303241
vt 0.625000 0.250000
vt 0.625000 0.250000
vt 0.625000 0.303241
vt 0.625000 0.946759
vt 0.625000 1.000000
vt 0.821759 0.500000
vt 0.821759 0.500000
vt 0.821759 0.628617
vt 0.686810 0.628617
vt 0.686810 0.750000
vt 0.686810 0.750000
vt 0.686810 0.628617
vt 0.625000 0.500000
vt 0.625000 0.628617
vt 0.625000 0.438190
vt 0.625000 0.438190
vt 0.625000 0.375000
vt 0.625000 0.375000
vt 0.625000 0.438190
vt 0.750000 0.750000
vt 0.750000 0.628617
vt 0.625000 0.811810
vt 0.625000 0.875000
vt 0.625000 0.628617
vt 0.625000 0.500000
vt 0.625000 0.500000
vt 0.625000 0.628617
vt 0.625000 0.438190
vt 0.625000 0.750000
vt 0.625000 0.811810
vt 0.686810 0.628617
vt 0.686810 0.750000
vt 0.686810 0.750000
vt 0.686810 0.628617
vt 0.625000 0.438190
vt 0.625000 0.750000
vt 0.625000 0.811810
vt 0.625000 0.628617
vt 0.625000 0.750000
vt 0.625000 0.438190
vt 0.625000 0.500000
vt 0.625000 0.811810
vt 0.686810 0.628617
vt 0.686810 0.500000
vt 0.686810 0.500000
vt 0.686810 0.628617
vt 0.625000 0.811810
vt 0.625000 0.875000
vt 0.750000 0.750000
vt 0.750000 0.628617
vt 0.750000 0.628617
vt 0.750000 0.750000
vt 0.750000 0.750000
vt 0.750000 0.628617
vt 0.625000 0.375000
vt 0.625000 0.438190
vt 0.625000 0.811810
vt 0.625000 0.875000
vt 0.686810 0.628617
vt 0.686810 0.750000
vt 0.625000 0.375000
vt 0.625000 0.438190
vt 0.625000 0.811810
vt 0.625000 0.875000
vt 0.686810 0.500000
vt 0.821759 0.628617
vt 0.821759 0.750000
vt 0.821759 0.750000
vt 0.821759 0.628617
vt 0.625000 0.303241
vt 0.625000 0.375000
vt 0.750000 0.500000
vt 0.750000 0.628617
vt 0.625000 0.946759
vt 0.625000 0.875000
vt 0.625000 0.875000
vt 0.625000 0.946759
vt 0.750000 0.500000
vt 0.750000 0.628617
vt 0.625000 0.303241
vt 0.625000 0.375000
vt 0.625000 0.875000
vt 0.625000 0.946759
vt 0.625000 0.303241
vt 0.625000 0.375000
vt 0.821759 0.750000
vt 0.821759 0.628617
vt 0.750000 0.500000
vt 0.750000 0.628617
vt 0.750000 0.628617
vt 0.821759 0.628617
vt 0.821759 0.750000
vt 0.750000 0.750000
vt 0.625000 0.303241
vt 0.625000 0.375000
vt 0.750000 0.500000
vt 0.625000 0.250000
vt 0.625000 0.303241
vt 0.625000 0.946759
vt 0.625000 1.000000
vt 0.821759 0.500000
vt 0.821759 0.628617
vt 0.625000 0.000000
vt 0.625000 0.121383
vt 0.625000 1.000000
vt 0.625000 0.946759
vt 0.625000 0.946759
vt 0.625000 1.000000
vt 0.821759 0.500000
vt 0.821759 0.628617
vt 0.625000 0.000000
vt 0.625000 0.121383
vt 0.821759 0.628617
vt 0.821759 0.500000
vt 0.821759 0.500000
vt 0.821759 0.628617
vt 0.625000 0.000000
vt 0.625000 0.121383
vt 0.625000 0.250000
vt 0.625000 0.303241
vt 0.875000 0.628617
vt 0.875000 0.750000
vt 0.821759 0.750000
vt 0.625000 0.000000
vt 0.625000 0.121383
vt 0.625000 0.250000
vt 0.625000 0.303241
vt 0.625000 0.946759
vt 0.625000 1.000000
vt 0.499012 0.628617
vt 0.625000 0.628617
vt 0.625000 0.500000
vt 0.499012 0.500000
vt 0.625000 0.750000
vt 0.625000 0.750000
vt 0.625000 0.628617
vt 0.625000 0.500000
vt 0.625000 0.500000
vt 0.625000 0.628617
vt 0.625000 0.500000
vt 0.625000 0.628617
vt 0.625000 0.750000
vt 0.625000 0.750000
vt 0.625000 0.750000
vt 0.625000 0.750000
vt 0.625000 0.750000
vt 0.625000 0.750000
vt 0.625000 0.628617
vt 0.625000 0.500000
vt 0.625000 0.628617
vt 0.625000 0.628617
vt 0.625000 0.628617
vt 0.625000 0.500000
vt 0.625000 0.500000
vt 0.625000 0.500000
vt 0.625000 0.500000
vt 0.625000 0.628617
vt 0.875000 0.500000
vt 0.821759 0.750000
vt 0.821759 0.750000
vt 0.821759 0.750000
vt 0.821759 0.750000
vt 0.750000 0.750000
vt 0.821759 0.500000
vt 0.821759 0.500000
vt 0.750000 0.750000
vt 0.821759 0.500000
vt 0.750000 0.750000
vt 0.750000 0.750000
vt 0.821759 0.500000
vt 0.821759 0.500000
vt 0.686810 0.750000
vt 0.750000 0.500000
vt 0.750000 0.500000
vt 0.750000 0.500000
vt 0.750000 0.500000
vt 0.686810 0.750000
vt 0.686810 0.750000
vt 0.686810 0.500000
vt 0.686810 0.500000
vt 0.686810 0.500000
vt 0.750000 0.500000
vt 0.686810 0.500000
vt 0.686810 0.500000
vt 0.686810 0.750000
vt 0.375000 0.628617
vt 0.375000 0.121383
vt 0.375000 0.000000
vt 0.499012 0.000000
vt 0.375000 0.000000
vt 0.375000 1.000000
vt 0.375000 0.375000
vt 0.000000 0.000000
vt 0.000000 0.000000
vt 0.000000 0.000000
vt 0.000000 0.000000
vt 0.000000 0.000000
vt 0.000000 0.000000
vt 0.000000 0.000000
vt 0.000000 0.000000
vt 0.000000 0.000000
vt 0.000000 0.000000
vt 0.000000 0.000000
vt 0.000000 0.000000
vn -0.1372 0.0091 -0.9905
vn -0.1090 0.0489 0.9928
vn -0.9602 -0.1342 -0.2448
vn 0.1676 -0.1602 -0.9727
vn 0.0746 -0.0102 0.9972
vn 0.1064 -0.0625 -0.9924
vn -0.9159 -0.1813 0.3582
vn 0.0493 0.1291 0.9904
vn -0.9235 -0.0510 0.3801
vn 0.9538 0.2854 0.0941
vn -0.0807 0.1301 0.9882
vn 0.9664 0.1458 -0.2118
vn -0.0134 -0.0701 -0.9974
vn -0.0165 -0.1662 0.9859
vn -0.0174 0.0432 0.9989
vn 0.0063 0.0459 -0.9989
vn 0.0026 -0.0721 0.9974
vn -0.0219 -0.0871 -0.9960
vn 0.1303 -0.1448 -0.9808
vn 0.7737 -0.4961 0.3940
vn -0.9805 -0.1152 -0.1592
vn -0.1803 -0.0655 0.9814
vn -0.0199 -0.0658 0.9976
vn -0.2012 -0.0833 -0.9760
vn 0.1445 -0.1363 0.9801
vn -0.1862 -0.0876 -0.9786
vn -0.0530 0.1374 0.9891
vn -0.0052 0.0129 -0.9999
vn -0.0254 0.0672 0.9974
vn -0.0201 0.0478 -0.9987
vn 0.0061 -0.0911 -0.9958
vn 0.1167 -0.1287 0.9848
vn 0.0944 0.0457 -0.9945
vn 0.0652 0.0135 0.9978
vn 0.0932 0.2405 0.9662
vn -0.0318 0.1204 0.9922
vn 0.0063 -0.0656 -0.9978
vn -0.2180 -0.1051 -0.9703
vn 0.0255 0.1167 0.9928
vn -0.8498 0.4128 0.3279
vn 0.0368 -0.0098 -0.9993
vn 0.9719 -0.2353 -0.0034
vn 0.9417 -0.0121 -0.3363
vn -0.0213 0.2274 0.9736
vn 0.0028 0.0149 -0.9999
vn -0.9485 0.1879 0.2551
vn -0.0214 0.1092 0.9938
vn -0.1281 0.2603 0.9570
vn -0.9611 0.1389 0.2387
vn 0.9451 0.2402 -0.2214
vn -0.0037 -0.0094 -0.9999
vn -0.1435 0.3322 0.9322
vn 0.6225 0.7238 -0.2976
vn -0.0241 -0.0432 -0.9988
vn -0.9055 0.1731 0.3875
vn 0.9160 -0.1745 -0.3613
vn -0.8778 0.2940 0.3782
vn 0.0042 -0.0016 -1.0000
vn 0.0000 0.0008 -1.0000
vn -0.9267 0.1115 0.3589
vn 0.0003 0.0009 -1.0000
vn 0.0005 0.0999 0.9950
vn 0.9424 0.0111 -0.3342
vn 0.0003 0.0008 -1.0000
vn 0.0037 0.0255 0.9997
vn 0.9179 -0.1209 -0.3780
vn -0.8660 0.4613 0.1931
vn -0.9227 0.1690 0.3464
vn 0.0005 0.0034 -1.0000
vn 0.0005 0.0040 1.0000
vn 0.1479 0.9881 0.0419
vn 0.0132 0.0889 -0.9960
vn 0.0126 0.0849 0.9963
vn 0.9464 0.2666 -0.1824
vn 0.9432 -0.0094 -0.3320
vn 0.0010 0.0238 0.9997
vn 0.9304 -0.0478 -0.3635
vn -0.9236 0.0858 0.3737
vn -0.8886 0.4152 0.1950
vn -0.9309 0.1325 0.3404
vn 0.0002 0.0030 -1.0000
vn 0.0002 0.0035 1.0000
vn 0.0656 0.9973 0.0332
vn 0.0056 0.0930 -0.9956
vn 0.0053 0.0888 0.9960
vn 0.9382 0.2888 -0.1908
vn -0.9281 0.0538 0.3684
vn 0.0002 -0.0002 -1.0000
vn -0.9297 0.0705 0.3616
vn 0.9367 0.0619 -0.3446
vn 0.0001 0.0034 1.0000
vn 0.9335 0.0104 -0.3583
vn -0.0003 0.0256 0.9997
vn 0.0000 0.0006 -1.0000
vn 0.0026 0.0785 0.9969
vn 0.0001 0.0028 -1.0000
vn -0.9364 0.0762 0.3426
vn 0.9427 -0.0015 -0.3335
vn 0.0353 0.9985 0.0414
vn 0.0027 0.0822 -0.9966
vn -0.9177 0.3358 0.2123
vn 0.9422 0.2635 -0.2069
vn -0.0002 -0.0001 -1.0000
vn -0.0213 0.1672 0.9857
vn 0.9158 0.2713 -0.2961
vn -0.9425 -0.0693 0.3270
vn -0.0002 0.0042 1.0000
vn -0.0017 0.0324 0.9995
vn 0.9460 0.1012 -0.3079
vn -0.9470 -0.0412 0.3184
vn 0.9098 0.3818 -0.1626
vn 0.9542 0.1003 -0.2819
vn -0.9569 0.0154 0.2900
vn -0.0002 0.0035 -1.0000
vn -0.0630 0.9974 0.0338
vn -0.9392 0.3003 0.1664
vn -0.0058 0.1018 -0.9948
vn -0.0055 0.0972 0.9952
vn 0.9660 -0.1433 0.2151
vn 0.0854 -0.0929 -0.9920
vn 0.7046 -0.6375 -0.3115
vn 0.1635 0.3325 0.9288
vn 0.8880 -0.3491 -0.2993
vn 0.0286 -0.0521 -0.9982
vn -0.6830 0.6493 0.3345
vn 0.9302 -0.2271 -0.2885
vn 0.0357 0.0767 0.9964
vn 0.0691 0.1593 0.9848
vn -0.8339 0.4592 0.3062
vn 0.0007 -0.0123 -0.9999
vn 0.4262 0.9036 0.0439
vn -0.6969 0.6957 0.1740
vn 0.0369 0.0793 -0.9962
vn 0.9701 -0.1699 -0.1734
vn 0.8713 -0.3996 -0.2849
vn 0.0015 0.0028 -1.0000
vn -0.8250 0.4842 0.2915
vn 0.0059 0.0126 0.9999
vn -0.8287 0.4827 -0.2834
vn 0.8704 -0.3956 0.2932
vn 0.9692 -0.1697 0.1786
vn -0.6975 0.6964 -0.1689
vn 0.4263 0.9036 -0.0426
vn -0.8622 0.4096 -0.2981
vn 0.9511 -0.1007 0.2921
vn -0.7948 0.5253 -0.3039
vn 0.9054 -0.2928 0.3074
vn 0.7033 -0.6334 0.3226
vn 0.9629 -0.1702 -0.2095
vn -0.9399 0.3007 -0.1615
vn -0.0630 0.9975 -0.0327
vn -0.9593 0.0152 -0.2818
vn 0.9517 0.1002 0.2901
vn 0.9091 0.3813 0.1676
vn -0.9496 -0.0517 -0.3091
vn 0.9419 0.1112 0.3168
vn -0.9445 -0.1250 -0.3037
vn 0.8933 0.3275 0.3079
vn 0.9410 0.2629 0.2131
vn -0.9189 0.3365 -0.2061
vn 0.0353 0.9986 -0.0402
vn 0.9394 -0.0013 0.3429
vn -0.9397 0.0762 -0.3333
vn 0.9295 0.0199 0.3682
vn 0.9273 0.1072 0.3587
vn -0.9366 0.0305 -0.3492
vn -0.9324 0.0449 -0.3585
vn 0.9372 0.2882 0.1965
vn 0.0656 0.9973 -0.0322
vn -0.9342 0.1327 -0.3311
vn -0.8895 0.4159 -0.1892
vn -0.9283 0.0776 -0.3637
vn 0.9268 -0.0389 0.3735
vn 0.9399 -0.0091 0.3413
vn 0.9454 0.2661 0.1879
vn 0.1479 0.9882 -0.0407
vn -0.9261 0.1694 -0.3370
vn -0.8669 0.4619 -0.1874
vn 0.9148 -0.1107 0.3885
vn 0.9391 0.0113 0.3435
vn -0.9359 0.0758 -0.3440
vn -0.8971 0.2489 -0.3651
vn 0.9158 -0.1273 0.3810
vn -0.9114 0.1642 -0.3773
vn 0.4676 0.8351 0.2898
vn 0.9011 0.3410 0.2677
vn -0.9731 0.0755 -0.2179
vn -0.9665 0.1256 -0.2240
vn 0.9368 0.0251 0.3489
vn 0.9717 -0.2346 0.0277
vn -0.9035 0.3212 -0.2838
vn 0.9332 -0.1953 -0.3017
vn -0.9712 0.2113 -0.1100
vn -0.9781 -0.1108 0.1760
vn 0.7781 -0.4997 -0.3806
vn 0.9383 -0.1836 0.2932
vn 0.9486 0.2109 0.2359
vn 0.9543 0.2849 -0.0908
vn -0.9759 -0.0804 -0.2029
vn -0.9212 -0.3098 -0.2356
vn -0.9709 0.2111 0.1136
vn -0.9333 -0.0866 0.3486
vn -0.0126 -0.1676 0.9858
vn -0.2087 -0.1022 0.9726
vn -0.0128 -0.1737 -0.9847
vn -0.0173 -0.1724 -0.9849
vn -0.0180 -0.6533 -0.7569
vn -0.1173 -0.5529 -0.8249
vn 0.0184 -0.6204 -0.7841
vn -0.0957 -0.6725 -0.7339
vn -0.0413 -0.6027 -0.7969
vn -0.1151 -0.5753 0.8098
vn -0.0431 -0.6180 0.7850
vn -0.0186 -0.6693 0.7428
vn -0.0975 -0.6858 0.7213
vn 0.0204 -0.6336 0.7734
usemtl Material
s off
f 29/1/1 5/2/1 11/3/1 30/4/1
f 32/5/2 26/6/2 7/7/2 20/8/2
f 150/9/3 143/10/3 5/2/3 22/11/3
f 36/12/4 2/13/4 154/14/4 211/15/4
f 3/16/5 21/17/5 124/18/5 122/19/5
f 40/20/6 34/21/6 1/22/6 19/23/6
f 146/24/7 12/25/7 54/26/7 161/27/7
f 37/28/8 3/16/8 10/29/8 38/30/8
f 143/10/9 7/31/9 12/25/9 146/24/9
f 142/32/10 1/22/10 9/33/10 145/34/10
f 26/6/11 14/35/11 17/36/11 27/37/11
f 153/38/12 35/39/12 48/40/12 158/41/12
f 31/42/13 29/1/13 16/43/13 23/44/13
f 15/45/14 28/46/14 209/47/14 207/48/14
f 39/49/15 37/28/15 14/35/15 24/50/15
f 34/21/16 16/43/16 18/51/16 35/52/16
f 33/53/17 39/49/17 24/50/17 15/45/17
f 25/54/18 31/42/18 23/44/18 13/55/18
f 36/12/19 40/20/19 19/23/19 2/13/19
f 144/56/20 149/57/20 21/17/20 4/58/20
f 141/59/21 150/9/21 22/11/21 6/60/21
f 28/46/22 32/5/22 20/8/22 8/61/22
f 15/45/23 24/50/23 32/5/23 28/46/23
f 6/60/24 22/11/24 31/42/24 25/54/24
f 4/58/25 33/53/25 210/62/25 151/63/25
f 22/11/26 5/2/26 29/1/26 31/42/26
f 7/7/27 26/6/27 27/37/27 12/64/27
f 18/51/28 30/4/28 49/65/28 50/66/28
f 24/50/29 14/35/29 26/6/29 32/5/29
f 16/43/30 29/1/30 30/4/30 18/51/30
f 13/55/31 23/44/31 40/20/31 36/12/31
f 4/58/32 21/17/32 39/49/32 33/53/32
f 1/22/33 34/21/33 35/52/33 9/33/33
f 21/17/34 3/16/34 37/28/34 39/49/34
f 38/30/35 10/29/35 42/67/35 44/68/35
f 14/35/36 37/28/36 38/30/36 17/36/36
f 23/44/37 16/43/37 34/21/37 40/20/37
f 6/60/38 25/54/38 208/69/38 148/70/38
f 44/68/39 42/67/39 58/71/39 60/72/39
f 153/38/40 38/73/40 44/74/40 156/75/40
f 9/33/41 35/52/41 43/76/41 41/77/41
f 145/34/42 9/33/42 41/77/42 155/78/42
f 158/41/43 48/40/43 64/79/43 166/80/43
f 17/36/44 38/30/44 45/81/44 46/82/44
f 35/52/45 18/51/45 47/83/45 48/84/45
f 147/85/46 17/86/46 46/87/46 157/88/46
f 52/89/47 51/90/47 91/91/47 92/92/47
f 27/37/48 17/36/48 51/90/48 52/89/48
f 152/93/49 27/94/49 52/95/49 160/96/49
f 147/85/50 18/97/50 50/98/50 159/99/50
f 56/100/51 55/101/51 107/102/51 108/103/51
f 12/64/52 27/37/52 53/104/52 54/105/52
f 152/93/53 30/106/53 56/107/53 162/108/53
f 30/4/54 11/3/54 55/101/54 56/100/54
f 164/109/55 60/110/55 68/111/55 168/112/55
f 155/78/56 41/77/56 57/113/56 163/114/56
f 156/75/57 44/74/57 60/110/57 164/109/57
f 41/77/58 43/76/58 59/115/58 57/113/58
f 64/116/59 63/117/59 79/118/59 80/119/59
f 157/88/60 46/87/60 62/120/60 165/121/60
f 48/84/61 47/83/61 63/117/61 64/116/61
f 46/82/62 45/81/62 61/122/62 62/123/62
f 167/124/63 65/125/63 69/126/63 169/127/63
f 57/113/64 59/115/64 67/128/64 65/125/64
f 60/72/65 58/71/65 66/129/65 68/130/65
f 163/114/66 57/113/66 65/125/66 167/124/66
f 170/131/67 72/132/67 76/133/67 172/134/67
f 168/112/68 68/111/68 72/132/68 170/131/68
f 65/125/69 67/128/69 71/135/69 69/126/69
f 68/130/70 66/129/70 70/136/70 72/137/70
f 171/138/71 172/134/71 76/133/71 74/139/71
f 69/126/72 71/135/72 75/140/72 73/141/72
f 72/137/73 70/136/73 74/139/73 76/142/73
f 169/127/74 69/126/74 73/141/74 171/138/74
f 174/143/75 80/144/75 84/145/75 176/146/75
f 62/123/76 61/122/76 77/147/76 78/148/76
f 166/80/77 64/79/77 80/144/77 174/143/77
f 165/121/78 62/120/78 78/149/78 173/150/78
f 175/151/79 82/152/79 86/153/79 177/154/79
f 173/150/80 78/149/80 82/152/80 175/151/80
f 80/119/81 79/118/81 83/155/81 84/156/81
f 78/148/82 77/147/82 81/157/82 82/158/82
f 178/159/83 177/154/83 86/153/83 85/160/83
f 84/156/84 83/155/84 87/161/84 88/162/84
f 82/158/85 81/157/85 85/163/85 86/164/85
f 176/146/86 84/145/86 88/165/86 178/159/86
f 180/166/87 92/167/87 96/168/87 182/169/87
f 50/66/88 49/65/88 89/170/88 90/171/88
f 160/96/89 52/95/89 92/167/89 180/166/89
f 159/99/90 50/98/90 90/172/90 179/173/90
f 96/174/91 95/175/91 99/176/91 100/177/91
f 179/173/92 90/172/92 94/178/92 181/179/92
f 92/92/93 91/91/93 95/175/93 96/174/93
f 90/171/94 89/170/94 93/180/94 94/181/94
f 100/177/95 99/176/95 103/182/95 104/183/95
f 94/181/96 93/180/96 97/184/96 98/185/96
f 182/169/97 96/168/97 100/186/97 184/187/97
f 181/179/98 94/178/98 98/188/98 183/189/98
f 185/190/99 186/191/99 104/192/99 103/193/99
f 98/185/100 97/184/100 101/194/100 102/195/100
f 184/187/101 100/186/101 104/192/101 186/191/101
f 183/189/102 98/188/102 102/196/102 185/190/102
f 108/103/103 107/102/103 111/197/103 112/198/103
f 54/105/104 53/104/104 105/199/104 106/200/104
f 162/108/105 56/107/105 108/201/105 188/202/105
f 161/27/106 54/26/106 106/203/106 187/204/106
f 110/205/107 109/206/107 113/207/107 114/208/107
f 106/200/108 105/199/108 109/206/108 110/205/108
f 188/202/109 108/201/109 112/209/109 190/210/109
f 187/204/110 106/203/110 110/211/110 189/212/110
f 192/213/111 116/214/111 120/215/111 194/216/111
f 190/210/112 112/209/112 116/214/112 192/213/112
f 189/212/113 110/211/113 114/217/113 191/218/113
f 112/198/114 111/197/114 115/219/114 116/220/114
f 194/216/115 193/221/115 118/222/115 117/223/115
f 191/218/116 114/217/116 118/224/116 193/225/116
f 116/220/117 115/219/117 119/226/117 120/227/117
f 114/208/118 113/207/118 117/228/118 118/229/118
f 196/230/119 195/231/119 122/19/119 124/18/119
f 19/23/120 1/22/120 121/232/120 123/233/120
f 149/57/121 19/23/121 123/233/121 196/230/121
f 3/16/122 122/19/122 128/234/122 126/235/122
f 198/236/123 127/237/123 131/238/123 200/239/123
f 121/232/124 1/22/124 125/240/124 127/237/124
f 142/32/125 3/16/125 126/235/125 197/241/125
f 195/231/126 121/232/126 127/237/126 198/236/126
f 138/242/127 137/243/127 136/244/127 134/245/127
f 126/235/128 128/234/128 132/246/128 130/247/128
f 197/241/129 126/235/129 130/247/129 199/248/129
f 127/237/130 125/240/130 129/249/130 131/238/130
f 201/250/131 134/245/131 136/244/131 202/251/131
f 204/252/132 138/242/132 134/245/132 201/250/132
f 140/253/133 139/254/133 133/255/133 135/256/133
f 203/257/134 140/253/134 135/256/134 202/251/134
f 200/239/135 131/238/135 140/253/135 203/257/135
f 131/238/136 129/249/136 139/254/136 140/253/136
f 199/248/137 130/247/137 138/242/137 204/252/137
f 130/247/138 132/246/138 137/243/138 138/242/138
f 129/249/139 199/248/139 204/252/139 139/254/139
f 132/246/140 200/239/140 203/257/140 137/243/140
f 137/243/141 203/257/141 202/251/141 136/244/141
f 139/254/142 204/252/142 201/250/142 133/255/142
f 133/255/143 201/250/143 202/251/143 135/256/143
f 125/240/144 197/241/144 199/248/144 129/249/144
f 122/19/145 195/231/145 198/236/145 128/234/145
f 1/22/146 142/32/146 197/241/146 125/240/146
f 128/234/147 198/236/147 200/239/147 132/246/147
f 21/17/148 149/57/148 196/230/148 124/18/148
f 123/233/149 121/232/149 195/231/149 196/230/149
f 115/219/150 191/218/150 193/225/150 119/226/150
f 120/215/151 119/258/151 193/221/151 194/216/151
f 111/197/152 189/212/152 191/218/152 115/219/152
f 109/259/153 190/210/153 192/213/153 113/260/153
f 113/260/154 192/213/154 194/216/154 117/223/154
f 107/102/155 187/204/155 189/212/155 111/197/155
f 105/261/156 188/202/156 190/210/156 109/259/156
f 55/101/157 161/27/157 187/204/157 107/102/157
f 53/262/158 162/108/158 188/202/158 105/261/158
f 99/263/159 183/189/159 185/190/159 103/193/159
f 97/264/160 184/187/160 186/191/160 101/265/160
f 102/196/161 101/265/161 186/191/161 185/190/161
f 95/266/162 181/179/162 183/189/162 99/263/162
f 93/267/163 182/169/163 184/187/163 97/264/163
f 91/268/164 179/173/164 181/179/164 95/266/164
f 51/269/165 159/99/165 179/173/165 91/268/165
f 49/270/166 160/96/166 180/166/166 89/271/166
f 89/271/167 180/166/167 182/169/167 93/267/167
f 81/272/168 176/146/168 178/159/168 85/160/168
f 88/165/169 87/273/169 177/154/169 178/159/169
f 79/274/170 173/150/170 175/151/170 83/275/170
f 83/275/171 175/151/171 177/154/171 87/273/171
f 63/276/172 165/121/172 173/150/172 79/274/172
f 61/277/173 166/80/173 174/143/173 77/278/173
f 77/278/174 174/143/174 176/146/174 81/272/174
f 70/136/175 169/127/175 171/138/175 74/139/175
f 73/141/176 75/279/176 172/134/176 171/138/176
f 67/280/177 168/112/177 170/131/177 71/281/177
f 71/281/178 170/131/178 172/134/178 75/279/178
f 58/71/179 163/114/179 167/124/179 66/129/179
f 66/129/180 167/124/180 169/127/180 70/136/180
f 47/282/181 157/88/181 165/121/181 63/276/181
f 43/283/182 156/75/182 164/109/182 59/284/182
f 42/67/183 155/78/183 163/114/183 58/71/183
f 59/284/184 164/109/184 168/112/184 67/280/184
f 27/94/185 152/93/185 162/108/185 53/262/185
f 17/86/186 147/85/186 159/99/186 51/269/186
f 30/106/187 152/93/187 160/96/187 49/270/187
f 18/97/188 147/85/188 157/88/188 47/282/188
f 45/285/189 158/41/189 166/80/189 61/277/189
f 10/29/190 145/34/190 155/78/190 42/67/190
f 35/39/191 153/38/191 156/75/191 43/283/191
f 2/13/192 144/56/192 213/286/192 154/14/192
f 141/59/193 6/60/193 148/70/193 212/287/193
f 8/288/194 20/289/194 150/9/194 141/59/194
f 2/13/195 19/23/195 149/57/195 144/56/195
f 144/56/196 4/58/196 151/63/196 213/286/196
f 38/73/197 153/38/197 158/41/197 45/285/197
f 3/16/198 142/32/198 145/34/198 10/29/198
f 5/2/199 143/10/199 146/24/199 11/3/199
f 11/3/200 146/24/200 161/27/200 55/101/200
f 8/288/201 141/59/201 212/287/201 205/290/201
f 20/289/202 7/31/202 143/10/202 150/9/202
f 33/53/203 15/45/203 207/48/203 210/62/203
f 28/46/204 8/61/204 205/291/204 209/47/204
f 13/55/205 36/12/205 211/15/205 206/292/205
f 25/54/206 13/55/206 206/292/206 208/69/206
f 207/293/207 144/294/207 210/295/207
f 144/294/208 151/296/208 210/295/208
f 205/297/209 141/298/209 209/299/209
f 207/293/210 209/299/210 141/298/210
f 144/294/211 207/293/211 141/298/211
f 154/300/212 144/294/212 211/301/212
f 206/302/213 144/294/213 141/298/213
f 144/294/214 206/302/214 211/301/214
f 208/303/215 206/302/215 141/298/215
f 141/298/216 148/304/216 208/303/216
l 145 146
o Cube.001
v 0.491666 0.320253 -0.334385
v 0.737903 -0.904585 -0.233384
v 0.492185 0.323865 0.230959
v 0.737902 -0.904585 0.175671
v 2.221408 0.261221 -0.310688
v 2.125103 -0.790526 -0.232352
v 2.187237 0.265568 0.195199
v 2.124981 -0.790531 0.174634
v 0.649406 1.040987 -0.320010
v 0.657111 1.041140 0.144368
v 2.268502 0.720547 -0.319968
v 2.247868 0.742814 0.134307
v 1.469220 -0.902084 -0.289306
v 1.453708 0.403245 0.224473
v 1.469438 -0.901868 0.228813
v 1.410810 0.344580 -0.385009
v 1.475220 1.208576 0.127712
v 1.473644 1.183477 -0.345011
v 0.440273 -0.363962 -0.282768
v 2.150308 -0.275399 0.208868
v 0.440264 -0.363756 0.222277
v 2.154857 -0.275434 -0.272199
v 1.382099 -0.331209 -0.340012
v 1.389254 -0.323277 0.268135
v 1.858976 -0.841549 -0.284894
v 1.847611 0.339021 0.211816
v 1.932015 1.001191 0.106697
v 1.858847 -0.841483 0.224606
v 1.871878 0.312400 -0.378657
v 1.928270 0.968242 -0.344769
v 1.835592 -0.295844 -0.334255
v 1.831417 -0.293038 0.261770
v 1.065223 -0.911235 0.224795
v 0.946418 0.331269 -0.380837
v 1.010273 1.208863 -0.342797
v 1.065244 -0.911394 -0.284981
v 0.948909 0.376391 0.245561
v 1.007603 1.228574 0.138663
v 0.901222 -0.355018 0.266861
v 0.901483 -0.360948 -0.335375
v 0.572129 1.626724 -0.330774
v 0.573368 1.626494 -0.002276
v 0.824545 1.694015 -0.332852
v 0.824131 1.696373 -0.002619
v 1.119981 1.810866 -0.005172
v 1.373227 1.814376 -0.006160
v 1.373666 1.811644 -0.334837
v 1.120449 1.808429 -0.334719
v 1.860854 1.567256 -0.338075
v 1.607471 1.622358 -0.338012
v 1.607085 1.625151 -0.019550
v 1.862042 1.571740 -0.022873
v 2.160618 1.181504 -0.008610
v 2.380595 1.118954 -0.004315
v 2.383346 1.115930 -0.340184
v 2.159492 1.177009 -0.342324
v 0.493037 2.059461 -0.332011
v 0.493074 2.059451 -0.053789
v 0.711778 2.095119 -0.332095
v 0.711765 2.095184 -0.053795
v 1.118005 2.318986 -0.056951
v 1.328926 2.328017 -0.056980
v 1.328944 2.327947 -0.334315
v 1.118018 2.318921 -0.334312
v 0.462311 2.292962 -0.331847
v 0.462311 2.292962 -0.059774
v 0.671201 2.320250 -0.331848
v 0.671201 2.320250 -0.059774
v 0.458564 2.597916 -0.330815
v 0.458564 2.597916 -0.060995
v 0.623438 2.622115 -0.330815
v 0.623438 2.622115 -0.060995
v 0.475303 2.712574 -0.320784
v 0.475303 2.712574 -0.070571
v 0.584176 2.728878 -0.320784
v 0.584176 2.728878 -0.070571
v 1.105335 2.571265 -0.062991
v 1.307601 2.580820 -0.062991
v 1.307601 2.580820 -0.334103
v 1.105335 2.571265 -0.334103
v 1.095946 2.917630 -0.064211
v 1.264376 2.927028 -0.064211
v 1.264376 2.927027 -0.333075
v 1.095946 2.917630 -0.333075
v 1.112905 3.024952 -0.073753
v 1.231673 3.032718 -0.073753
v 1.231673 3.032717 -0.323080
v 1.112905 3.024952 -0.323080
v 1.842298 2.072207 -0.338164
v 1.640286 2.077420 -0.338160
v 1.640268 2.077491 -0.073655
v 1.842338 2.072332 -0.073756
v 1.830780 2.323483 -0.338003
v 1.642415 2.318980 -0.338003
v 1.642415 2.318980 -0.080000
v 1.830780 2.323483 -0.080000
v 1.806531 2.669243 -0.337026
v 1.638063 2.663911 -0.337026
v 1.638063 2.663911 -0.081188
v 1.806531 2.669243 -0.081188
v 1.780618 2.783928 -0.327515
v 1.654604 2.779491 -0.327515
v 1.654604 2.779491 -0.090268
v 1.780618 2.783928 -0.090268
v 2.238934 1.440428 -0.055773
v 2.422189 1.425479 -0.055640
v 2.422269 1.425397 -0.343695
v 2.238894 1.440303 -0.343778
v 2.258105 1.619521 -0.061644
v 2.432433 1.611155 -0.061644
v 2.432433 1.611155 -0.343759
v 2.258105 1.619521 -0.343760
v 2.284766 1.917571 -0.062901
v 2.432347 1.909838 -0.062901
v 2.432347 1.909838 -0.342699
v 2.284766 1.917571 -0.342699
v 2.312232 2.018293 -0.072832
v 2.413976 2.011917 -0.072832
v 2.413976 2.011917 -0.332297
v 2.312232 2.018293 -0.332297
v 0.131521 0.197295 -0.308730
v 0.131533 0.197394 0.204918
v 0.157878 -0.133229 -0.263192
v 0.157878 -0.133229 0.201295
v 0.294592 0.622548 -0.335575
v 0.294603 0.622647 0.081409
v 0.056996 0.536452 -0.333216
v 0.056996 0.536452 0.078266
v 0.188098 0.841654 -0.337048
v 0.188098 0.841654 0.038087
v -0.025101 0.752657 -0.336949
v -0.025101 0.752657 0.037941
v -0.115707 1.327422 -0.322039
v -0.115707 1.327422 0.019112
v -0.243240 1.267282 -0.322039
v -0.243240 1.267282 0.019112
v -0.197862 1.117399 0.032340
v -0.015768 1.201384 0.032343
v -0.015768 1.201384 -0.335716
v -0.197862 1.117399 -0.335715
v 2.127272 -0.851077 -0.025450
v 0.504912 0.469317 -0.050381
v 2.289574 0.252054 -0.032926
v 0.690702 -0.950464 -0.024740
v 0.722468 1.001780 -0.062209
v 2.310168 0.676322 -0.048302
v 1.486373 1.367436 -0.097587
v 2.153314 -1.059118 -0.195198
v 0.356075 -0.468624 -0.025143
v 2.219475 -0.273625 -0.025128
v 0.789886 -1.184435 0.146192
v 1.950349 1.096062 -0.101725
v 1.005511 1.395767 -0.094305
v 0.791825 -1.170219 -0.195242
v 0.511055 1.610183 -0.160652
v 0.882916 1.725391 -0.163623
v 1.431054 1.830343 -0.166056
v 1.064209 1.823671 -0.165779
v 1.551637 1.647645 -0.174344
v 1.919607 1.570524 -0.174618
v 2.436891 1.104267 -0.166053
v 2.110487 1.196985 -0.169528
v 0.436072 2.050610 -0.190611
v 0.768466 2.104610 -0.190731
v 1.383586 2.331130 -0.193432
v 1.063435 2.317152 -0.193423
v 0.406256 2.285891 -0.193686
v 0.727246 2.327361 -0.193688
v 0.416893 2.592083 -0.193806
v 0.665000 2.628722 -0.193806
v 0.465518 2.716345 -0.193758
v 0.592714 2.735375 -0.193758
v 1.361627 2.583360 -0.196432
v 1.051309 2.568766 -0.196432
v 1.306790 2.929629 -0.196552
v 1.053499 2.915521 -0.196552
v 1.241768 3.037521 -0.196503
v 1.102235 3.028288 -0.196503
v 1.588227 2.078505 -0.203791
v 1.894472 2.072308 -0.203794
v 1.592612 2.317677 -0.206989
v 1.880584 2.324830 -0.206989
v 1.595558 2.662896 -0.207117
v 1.849012 2.670916 -0.207117
v 1.643082 2.783908 -0.207071
v 1.791767 2.789185 -0.207071
v 2.469822 1.422202 -0.197300
v 2.191682 1.443797 -0.197429
v 2.478886 1.609042 -0.200499
v 2.211658 1.621660 -0.200501
v 2.469779 1.908200 -0.200624
v 2.247364 1.919803 -0.200624
v 2.422915 2.015626 -0.200573
v 2.303696 2.023207 -0.200573
v 0.055944 0.179003 -0.048407
v 0.131079 -0.147308 -0.026777
v 0.349335 0.657114 -0.124263
v -0.003131 0.514430 -0.124267
v 0.244380 0.865830 -0.146565
v -0.081617 0.729053 -0.146566
v -0.108103 1.339186 -0.148846
v -0.257736 1.268580 -0.148846
v -0.244270 1.096426 -0.148824
v 0.030108 1.223366 -0.148824
v 2.153314 -1.059118 0.138546
v 1.494399 -1.161733 -0.235239
v 1.494399 -1.161733 0.176722
v 1.915015 -1.111919 -0.244749
v 1.915015 -1.111919 0.185918
v 1.070913 -1.184062 0.185919
v 1.070913 -1.184062 -0.244752
v 2.208633 -1.067212 -0.026282
v 0.729906 -1.186295 -0.026283
vt 0.625000 0.303241
vt 0.625000 0.303241
vt 0.625000 0.250000
vt 0.625000 0.250000
vt 0.499012 0.946759
vt 0.499012 1.000000
vt 0.625000 1.000000
vt 0.625000 0.946759
vt 0.499012 0.121383
vt 0.499012 0.250000
vt 0.625000 0.121383
vt 0.375000 0.438190
vt 0.375000 0.438190
vt 0.375000 0.500000
vt 0.375000 0.500000
vt 0.625000 0.750000
vt 0.625000 0.750000
vt 0.499012 0.750000
vt 0.499012 0.750000
vt 0.499012 0.438190
vt 0.499012 0.500000
vt 0.625000 0.500000
vt 0.625000 0.438190
vt 0.625000 0.121383
vt 0.625000 0.121383
vt 0.625000 0.000000
vt 0.625000 0.000000
vt 0.625000 0.811810
vt 0.625000 0.811810
vt 0.625000 0.750000
vt 0.625000 0.000000
vt 0.625000 0.628617
vt 0.625000 0.628617
vt 0.625000 0.500000
vt 0.625000 0.946759
vt 0.625000 0.875000
vt 0.625000 0.875000
vt 0.686810 0.628617
vt 0.686810 0.628617
vt 0.686810 0.500000
vt 0.686810 0.500000
vt 0.499012 0.303241
vt 0.499012 0.375000
vt 0.625000 0.375000
vt 0.375000 0.875000
vt 0.375000 0.875000
vt 0.375000 0.946759
vt 0.375000 0.946759
vt 0.499012 0.811810
vt 0.499012 0.875000
vt 0.625000 0.438190
vt 0.625000 0.375000
vt 0.375000 0.811810
vt 0.375000 0.303241
vt 0.375000 0.375000
vt 0.375000 0.628617
vt 0.375000 0.750000
vt 0.499012 0.628617
vt 0.375000 0.121383
vt 0.375000 0.250000
vt 0.375000 1.000000
vt 0.375000 0.750000
vt 0.375000 0.811810
vt 0.625000 1.000000
vt 0.625000 0.375000
vt 0.625000 0.303241
vt 0.625000 0.811810
vt 0.625000 0.750000
vt 0.375000 0.250000
vt 0.375000 0.303241
vt 0.625000 0.811810
vt 0.625000 0.750000
vt 0.686810 0.628617
vt 0.686810 0.750000
vt 0.686810 0.750000
vt 0.625000 0.500000
vt 0.625000 0.438190
vt 0.625000 0.628617
vt 0.686810 0.628617
vt 0.686810 0.500000
vt 0.625000 0.875000
vt 0.625000 0.811810
vt 0.625000 0.438190
vt 0.625000 0.375000
vt 0.750000 0.628617
vt 0.750000 0.628617
vt 0.750000 0.750000
vt 0.750000 0.750000
vt 0.625000 0.946759
vt 0.625000 0.946759
vt 0.625000 0.875000
vt 0.625000 0.875000
vt 0.821759 0.628617
vt 0.821759 0.628617
vt 0.821759 0.750000
vt 0.821759 0.750000
vt 0.750000 0.628617
vt 0.750000 0.500000
vt 0.750000 0.500000
vt 0.625000 0.303241
vt 0.625000 0.303241
vt 0.625000 0.250000
vt 0.625000 0.250000
vt 0.625000 1.000000
vt 0.625000 0.946759
vt 0.821759 0.628617
vt 0.821759 0.500000
vt 0.821759 0.500000
vt 0.686810 0.628617
vt 0.686810 0.628617
vt 0.686810 0.750000
vt 0.686810 0.750000
vt 0.625000 0.628617
vt 0.625000 0.500000
vt 0.625000 0.438190
vt 0.625000 0.438190
vt 0.625000 0.438190
vt 0.625000 0.375000
vt 0.625000 0.375000
vt 0.750000 0.628617
vt 0.750000 0.750000
vt 0.625000 0.875000
vt 0.625000 0.811810
vt 0.625000 0.628617
vt 0.625000 0.628617
vt 0.625000 0.500000
vt 0.625000 0.500000
vt 0.625000 0.438190
vt 0.625000 0.811810
vt 0.625000 0.750000
vt 0.686810 0.628617
vt 0.686810 0.628617
vt 0.686810 0.750000
vt 0.686810 0.750000
vt 0.625000 0.438190
vt 0.625000 0.811810
vt 0.625000 0.750000
vt 0.625000 0.628617
vt 0.625000 0.750000
vt 0.625000 0.500000
vt 0.625000 0.438190
vt 0.625000 0.811810
vt 0.686810 0.628617
vt 0.686810 0.628617
vt 0.686810 0.500000
vt 0.686810 0.500000
vt 0.625000 0.875000
vt 0.625000 0.811810
vt 0.750000 0.628617
vt 0.750000 0.750000
vt 0.750000 0.628617
vt 0.750000 0.628617
vt 0.750000 0.750000
vt 0.750000 0.750000
vt 0.625000 0.438190
vt 0.625000 0.375000
vt 0.625000 0.875000
vt 0.625000 0.811810
vt 0.686810 0.628617
vt 0.686810 0.750000
vt 0.625000 0.438190
vt 0.625000 0.375000
vt 0.625000 0.875000
vt 0.625000 0.811810
vt 0.686810 0.500000
vt 0.821759 0.628617
vt 0.821759 0.628617
vt 0.821759 0.750000
vt 0.821759 0.750000
vt 0.625000 0.375000
vt 0.625000 0.303241
vt 0.750000 0.628617
vt 0.750000 0.500000
vt 0.625000 0.946759
vt 0.625000 0.946759
vt 0.625000 0.875000
vt 0.625000 0.875000
vt 0.750000 0.628617
vt 0.750000 0.500000
vt 0.625000 0.375000
vt 0.625000 0.303241
vt 0.625000 0.946759
vt 0.625000 0.875000
vt 0.625000 0.375000
vt 0.625000 0.303241
vt 0.821759 0.628617
vt 0.821759 0.750000
vt 0.750000 0.628617
vt 0.750000 0.500000
vt 0.750000 0.628617
vt 0.750000 0.750000
vt 0.821759 0.750000
vt 0.821759 0.628617
vt 0.625000 0.375000
vt 0.625000 0.303241
vt 0.750000 0.500000
vt 0.625000 0.303241
vt 0.625000 0.250000
vt 0.625000 1.000000
vt 0.625000 0.946759
vt 0.821759 0.628617
vt 0.821759 0.500000
vt 0.625000 0.121383
vt 0.625000 0.000000
vt 0.625000 1.000000
vt 0.625000 1.000000
vt 0.625000 0.946759
vt 0.625000 0.946759
vt 0.821759 0.628617
vt 0.821759 0.500000
vt 0.625000 0.121383
vt 0.625000 0.000000
vt 0.821759 0.628617
vt 0.821759 0.628617
vt 0.821759 0.500000
vt 0.821759 0.500000
vt 0.625000 0.121383
vt 0.625000 0.000000
vt 0.625000 0.303241
vt 0.625000 0.250000
vt 0.821759 0.750000
vt 0.875000 0.750000
vt 0.875000 0.628617
vt 0.625000 0.121383
vt 0.625000 0.000000
vt 0.625000 0.303241
vt 0.625000 0.250000
vt 0.625000 1.000000
vt 0.625000 0.946759
vt 0.499012 0.628617
vt 0.625000 0.628617
vt 0.499012 0.500000
vt 0.625000 0.500000
vt 0.625000 0.750000
vt 0.625000 0.750000
vt 0.625000 0.628617
vt 0.625000 0.628617
vt 0.625000 0.500000
vt 0.625000 0.500000
vt 0.625000 0.500000
vt 0.625000 0.628617
vt 0.625000 0.750000
vt 0.625000 0.750000
vt 0.625000 0.750000
vt 0.625000 0.750000
vt 0.625000 0.750000
vt 0.625000 0.750000
vt 0.625000 0.628617
vt 0.625000 0.500000
vt 0.625000 0.628617
vt 0.625000 0.628617
vt 0.625000 0.628617
vt 0.625000 0.500000
vt 0.625000 0.500000
vt 0.625000 0.500000
vt 0.625000 0.500000
vt 0.625000 0.628617
vt 0.875000 0.500000
vt 0.821759 0.750000
vt 0.821759 0.750000
vt 0.821759 0.750000
vt 0.821759 0.750000
vt 0.750000 0.750000
vt 0.821759 0.500000
vt 0.821759 0.500000
vt 0.750000 0.750000
vt 0.821759 0.500000
vt 0.750000 0.750000
vt 0.750000 0.750000
vt 0.821759 0.500000
vt 0.821759 0.500000
vt 0.686810 0.750000
vt 0.750000 0.500000
vt 0.750000 0.500000
vt 0.750000 0.500000
vt 0.750000 0.500000
vt 0.686810 0.750000
vt 0.686810 0.750000
vt 0.686810 0.500000
vt 0.686810 0.500000
vt 0.686810 0.500000
vt 0.750000 0.500000
vt 0.686810 0.500000
vt 0.686810 0.500000
vt 0.686810 0.750000
vt 0.375000 0.628617
vt 0.375000 0.121383
vt 0.375000 0.000000
vt 0.499012 0.000000
vt 0.375000 0.000000
vt 0.375000 1.000000
vt 0.375000 0.375000
vt 0.000000 0.000000
vt 0.000000 0.000000
vt 0.000000 0.000000
vt 0.000000 0.000000
vt 0.000000 0.000000
vt 0.000000 0.000000
vt 0.000000 0.000000
vt 0.000000 0.000000
vt 0.000000 0.000000
vt 0.000000 0.000000
vt 0.000000 0.000000
vt 0.000000 0.000000
vn 0.1372 0.0091 -0.9905
vn 0.1090 0.0489 0.9928
vn 0.9602 -0.1342 -0.2448
vn -0.1676 -0.1602 -0.9727
vn -0.0746 -0.0102 0.9972
vn -0.1064 -0.0625 -0.9924
vn 0.9159 -0.1813 0.3582
vn -0.0493 0.1291 0.9904
vn 0.9235 -0.0510 0.3801
vn -0.9538 0.2854 0.0941
vn 0.0807 0.1301 0.9882
vn -0.9664 0.1458 -0.2118
vn 0.0134 -0.0701 -0.9974
vn 0.0165 -0.1662 0.9859
vn 0.0174 0.0432 0.9989
vn -0.0063 0.0459 -0.9989
vn -0.0026 -0.0721 0.9974
vn 0.0219 -0.0871 -0.9960
vn -0.1303 -0.1448 -0.9808
vn -0.7737 -0.4961 0.3940
vn 0.9805 -0.1152 -0.1592
vn 0.1803 -0.0655 0.9814
vn 0.0199 -0.0658 0.9976
vn 0.2012 -0.0833 -0.9760
vn -0.1445 -0.1363 0.9801
vn 0.1862 -0.0876 -0.9786
vn 0.0530 0.1374 0.9891
vn 0.0052 0.0129 -0.9999
vn 0.0254 0.0672 0.9974
vn 0.0201 0.0478 -0.9987
vn -0.0061 -0.0911 -0.9958
vn -0.1167 -0.1287 0.9848
vn -0.0944 0.0457 -0.9945
vn -0.0652 0.0135 0.9978
vn -0.0932 0.2405 0.9662
vn 0.0318 0.1204 0.9922
vn -0.0063 -0.0656 -0.9978
vn 0.2180 -0.1051 -0.9703
vn -0.0255 0.1167 0.9928
vn 0.8498 0.4128 0.3279
vn -0.0368 -0.0098 -0.9993
vn -0.9719 -0.2353 -0.0034
vn -0.9417 -0.0121 -0.3363
vn 0.0213 0.2274 0.9736
vn -0.0028 0.0149 -0.9999
vn 0.9485 0.1879 0.2551
vn 0.0214 0.1092 0.9938
vn 0.1281 0.2603 0.9570
vn 0.9611 0.1389 0.2387
vn -0.9451 0.2402 -0.2214
vn 0.0037 -0.0094 -0.9999
vn 0.1435 0.3322 0.9322
vn -0.6225 0.7238 -0.2976
vn 0.0241 -0.0432 -0.9988
vn 0.9055 0.1731 0.3875
vn -0.9160 -0.1745 -0.3613
vn 0.8778 0.2940 0.3782
vn -0.0042 -0.0016 -1.0000
vn -0.0000 0.0008 -1.0000
vn 0.9267 0.1115 0.3589
vn -0.0003 0.0009 -1.0000
vn -0.0005 0.0999 0.9950
vn -0.9424 0.0111 -0.3342
vn -0.0003 0.0008 -1.0000
vn -0.0037 0.0255 0.9997
vn -0.9179 -0.1209 -0.3780
vn 0.8660 0.4613 0.1931
vn 0.9227 0.1690 0.3464
vn -0.0005 0.0034 -1.0000
vn -0.0005 0.0040 1.0000
vn -0.1479 0.9881 0.0419
vn -0.0132 0.0889 -0.9960
vn -0.0126 0.0849 0.9963
vn -0.9464 0.2666 -0.1824
vn -0.9432 -0.0094 -0.3320
vn -0.0010 0.0238 0.9997
vn -0.9304 -0.0478 -0.3635
vn 0.9236 0.0858 0.3737
vn 0.8886 0.4152 0.1950
vn 0.9309 0.1325 0.3404
vn -0.0002 0.0030 -1.0000
vn -0.0002 0.0035 1.0000
vn -0.0656 0.9973 0.0332
vn -0.0056 0.0930 -0.9956
vn -0.0053 0.0888 0.9960
vn -0.9382 0.2888 -0.1908
vn 0.9281 0.0538 0.3684
vn -0.0002 -0.0002 -1.0000
vn 0.9297 0.0705 0.3616
vn -0.9367 0.0619 -0.3446
vn -0.0001 0.0034 1.0000
vn -0.9335 0.0104 -0.3583
vn 0.0003 0.0256 0.9997
vn -0.0000 0.0006 -1.0000
vn -0.0026 0.0785 0.9969
vn -0.0001 0.0028 -1.0000
vn 0.9364 0.0762 0.3426
vn -0.9427 -0.0015 -0.3335
vn -0.0353 0.9985 0.0414
vn -0.0027 0.0822 -0.9966
vn 0.9177 0.3358 0.2123
vn -0.9422 0.2635 -0.2069
vn 0.0002 -0.0001 -1.0000
vn 0.0213 0.1672 0.9857
vn -0.9158 0.2713 -0.2961
vn 0.9425 -0.0692 0.3270
vn 0.0002 0.0042 1.0000
vn 0.0017 0.0324 0.9995
vn -0.9460 0.1012 -0.3079
vn 0.9470 -0.0412 0.3184
vn -0.9098 0.3818 -0.1626
vn -0.9542 0.1003 -0.2819
vn 0.9569 0.0154 0.2900
vn 0.0002 0.0035 -1.0000
vn 0.0630 0.9974 0.0338
vn 0.9392 0.3003 0.1664
vn 0.0058 0.1018 -0.9948
vn 0.0055 0.0972 0.9952
vn -0.9660 -0.1433 0.2151
vn -0.0854 -0.0929 -0.9920
vn -0.7046 -0.6375 -0.3115
vn -0.1635 0.3325 0.9288
vn -0.8880 -0.3491 -0.2993
vn -0.0286 -0.0521 -0.9982
vn 0.6830 0.6493 0.3345
vn -0.9302 -0.2271 -0.2885
vn -0.0357 0.0767 0.9964
vn -0.0691 0.1593 0.9848
vn 0.8339 0.4592 0.3062
vn -0.0007 -0.0123 -0.9999
vn -0.4262 0.9036 0.0439
vn 0.6969 0.6957 0.1740
vn -0.0369 0.0793 -0.9962
vn -0.9701 -0.1699 -0.1734
vn -0.8713 -0.3996 -0.2849
vn -0.0015 0.0028 -1.0000
vn 0.8250 0.4842 0.2915
vn -0.0059 0.0126 0.9999
vn 0.8287 0.4827 -0.2834
vn -0.8704 -0.3956 0.2932
vn -0.9692 -0.1697 0.1786
vn 0.6975 0.6964 -0.1689
vn -0.4263 0.9036 -0.0426
vn 0.8622 0.4096 -0.2981
vn -0.9511 -0.1007 0.2921
vn 0.7948 0.5253 -0.3039
vn -0.9054 -0.2928 0.3074
vn -0.7033 -0.6334 0.3226
vn -0.9629 -0.1702 -0.2095
vn 0.9399 0.3007 -0.1615
vn 0.0630 0.9975 -0.0327
vn 0.9593 0.0152 -0.2818
vn -0.9517 0.1002 0.2901
vn -0.9091 0.3813 0.1676
vn 0.9496 -0.0517 -0.3091
vn -0.9419 0.1112 0.3168
vn 0.9445 -0.1250 -0.3037
vn -0.8933 0.3274 0.3079
vn -0.9410 0.2629 0.2131
vn 0.9189 0.3365 -0.2061
vn -0.0353 0.9986 -0.0402
vn -0.9394 -0.0013 0.3429
vn 0.9397 0.0762 -0.3333
vn -0.9295 0.0199 0.3682
vn -0.9273 0.1072 0.3587
vn 0.9366 0.0305 -0.3492
vn 0.9324 0.0449 -0.3585
vn -0.9372 0.2882 0.1965
vn -0.0656 0.9973 -0.0322
vn 0.9342 0.1327 -0.3311
vn 0.8895 0.4159 -0.1892
vn 0.9283 0.0776 -0.3637
vn -0.9268 -0.0389 0.3735
vn -0.9399 -0.0091 0.3413
vn -0.9454 0.2661 0.1879
vn -0.1479 0.9882 -0.0407
vn 0.9261 0.1694 -0.3370
vn 0.8669 0.4619 -0.1874
vn -0.9148 -0.1107 0.3885
vn -0.9391 0.0113 0.3435
vn 0.9359 0.0758 -0.3440
vn 0.8971 0.2489 -0.3651
vn -0.9158 -0.1273 0.3810
vn 0.9114 0.1642 -0.3773
vn -0.4676 0.8351 0.2898
vn -0.9011 0.3410 0.2677
vn 0.9731 0.0755 -0.2179
vn 0.9665 0.1256 -0.2240
vn -0.9368 0.0251 0.3489
vn -0.9717 -0.2346 0.0277
vn 0.9035 0.3212 -0.2838
vn -0.9332 -0.1953 -0.3017
vn 0.9712 0.2113 -0.1100
vn 0.9781 -0.1108 0.1760
vn -0.7781 -0.4997 -0.3806
vn -0.9383 -0.1836 0.2932
vn -0.9486 0.2109 0.2359
vn -0.9543 0.2849 -0.0908
vn 0.9759 -0.0804 -0.2029
vn 0.9212 -0.3097 -0.2356
vn 0.9709 0.2111 0.1136
vn 0.9333 -0.0866 0.3486
vn 0.0126 -0.1676 0.9858
vn 0.2087 -0.1022 0.9726
vn 0.0128 -0.1737 -0.9847
vn 0.0173 -0.1724 -0.9849
vn 0.0180 -0.6533 -0.7569
vn 0.1173 -0.5529 -0.8249
vn -0.0184 -0.6204 -0.7841
vn 0.0957 -0.6725 -0.7339
vn 0.0413 -0.6027 -0.7969
vn 0.1151 -0.5753 0.8098
vn 0.0431 -0.6180 0.7850
vn 0.0186 -0.6693 0.7428
vn 0.0975 -0.6858 0.7213
vn -0.0204 -0.6336 0.7734
usemtl Material.001
s off
f 242/305/217 243/306/217 224/307/217 218/308/217
f 245/309/218 233/310/218 220/311/218 239/312/218
f 363/313/219 235/314/219 218/308/219 356/315/219
f 249/316/220 424/317/220 367/318/220 215/319/220
f 216/320/221 335/321/221 337/322/221 234/323/221
f 253/324/222 232/325/222 214/326/222 247/327/222
f 359/328/223 374/329/223 267/330/223 225/331/223
f 250/332/224 251/333/224 223/334/224 216/320/224
f 356/315/225 359/328/225 225/331/225 220/335/225
f 355/336/226 358/337/226 222/338/226 214/326/226
f 239/312/227 240/339/227 230/340/227 227/341/227
f 366/342/228 371/343/228 261/344/228 248/345/228
f 244/346/229 236/347/229 229/348/229 242/305/229
f 228/349/230 420/350/230 422/351/230 241/352/230
f 252/353/231 237/354/231 227/341/231 250/332/231
f 247/327/232 248/355/232 231/356/232 229/348/232
f 246/357/233 228/349/233 237/354/233 252/353/233
f 238/358/234 226/359/234 236/347/234 244/346/234
f 249/316/235 215/319/235 232/325/235 253/324/235
f 357/360/236 217/361/236 234/323/236 362/362/236
f 354/363/237 219/364/237 235/314/237 363/313/237
f 241/352/238 221/365/238 233/310/238 245/309/238
f 228/349/239 241/352/239 245/309/239 237/354/239
f 219/364/240 238/358/240 244/346/240 235/314/240
f 217/361/241 364/366/241 423/367/241 246/357/241
f 235/314/242 244/346/242 242/305/242 218/308/242
f 220/311/243 225/368/243 240/339/243 239/312/243
f 231/356/244 263/369/244 262/370/244 243/306/244
f 237/354/245 245/309/245 239/312/245 227/341/245
f 229/348/246 231/356/246 243/306/246 242/305/246
f 226/359/247 249/316/247 253/324/247 236/347/247
f 217/361/248 246/357/248 252/353/248 234/323/248
f 214/326/249 222/338/249 248/355/249 247/327/249
f 234/323/250 252/353/250 250/332/250 216/320/250
f 251/333/251 257/371/251 255/372/251 223/334/251
f 227/341/252 230/340/252 251/333/252 250/332/252
f 236/347/253 253/324/253 247/327/253 229/348/253
f 219/364/254 361/373/254 421/374/254 238/358/254
f 257/371/255 273/375/255 271/376/255 255/372/255
f 366/342/256 369/377/256 257/378/256 251/379/256
f 222/338/257 254/380/257 256/381/257 248/355/257
f 358/337/258 368/382/258 254/380/258 222/338/258
f 371/343/259 379/383/259 277/384/259 261/344/259
f 230/340/260 259/385/260 258/386/260 251/333/260
f 248/355/261 261/387/261 260/388/261 231/356/261
f 360/389/262 370/390/262 259/391/262 230/392/262
f 265/393/263 305/394/263 304/395/263 264/396/263
f 240/339/264 265/393/264 264/396/264 230/340/264
f 365/397/265 373/398/265 265/399/265 240/400/265
f 360/389/266 372/401/266 263/402/266 231/403/266
f 269/404/267 321/405/267 320/406/267 268/407/267
f 225/368/268 267/408/268 266/409/268 240/339/268
f 365/397/269 375/410/269 269/411/269 243/412/269
f 243/306/270 269/404/270 268/407/270 224/307/270
f 377/413/271 381/414/271 281/415/271 273/416/271
f 368/382/272 376/417/272 270/418/272 254/380/272
f 369/377/273 377/413/273 273/416/273 257/378/273
f 254/380/274 270/418/274 272/419/274 256/381/274
f 277/420/275 293/421/275 292/422/275 276/423/275
f 370/390/276 378/424/276 275/425/276 259/391/276
f 261/387/277 277/420/277 276/423/277 260/388/277
f 259/385/278 275/426/278 274/427/278 258/386/278
f 380/428/279 382/429/279 282/430/279 278/431/279
f 270/418/280 278/431/280 280/432/280 272/419/280
f 273/375/281 281/433/281 279/434/281 271/376/281
f 376/417/282 380/428/282 278/431/282 270/418/282
f 383/435/283 385/436/283 289/437/283 285/438/283
f 381/414/284 383/435/284 285/438/284 281/415/284
f 278/431/285 282/430/285 284/439/285 280/432/285
f 281/433/286 285/440/286 283/441/286 279/434/286
f 384/442/287 287/443/287 289/437/287 385/436/287
f 282/430/288 286/444/288 288/445/288 284/439/288
f 285/440/289 289/446/289 287/443/289 283/441/289
f 382/429/290 384/442/290 286/444/290 282/430/290
f 387/447/291 389/448/291 297/449/291 293/450/291
f 275/426/292 291/451/292 290/452/292 274/427/292
f 379/383/293 387/447/293 293/450/293 277/384/293
f 378/424/294 386/453/294 291/454/294 275/425/294
f 388/455/295 390/456/295 299/457/295 295/458/295
f 386/453/296 388/455/296 295/458/296 291/454/296
f 293/421/297 297/459/297 296/460/297 292/422/297
f 291/451/298 295/461/298 294/462/298 290/452/298
f 391/463/299 298/464/299 299/457/299 390/456/299
f 297/459/300 301/465/300 300/466/300 296/460/300
f 295/461/301 299/467/301 298/468/301 294/462/301
f 389/448/302 391/463/302 301/469/302 297/449/302
f 393/470/303 395/471/303 309/472/303 305/473/303
f 263/369/304 303/474/304 302/475/304 262/370/304
f 373/398/305 393/470/305 305/473/305 265/399/305
f 372/401/306 392/476/306 303/477/306 263/402/306
f 309/478/307 313/479/307 312/480/307 308/481/307
f 392/476/308 394/482/308 307/483/308 303/477/308
f 305/394/309 309/478/309 308/481/309 304/395/309
f 303/474/310 307/484/310 306/485/310 302/475/310
f 313/479/311 317/486/311 316/487/311 312/480/311
f 307/484/312 311/488/312 310/489/312 306/485/312
f 395/471/313 397/490/313 313/491/313 309/472/313
f 394/482/314 396/492/314 311/493/314 307/483/314
f 398/494/315 316/495/315 317/496/315 399/497/315
f 311/488/316 315/498/316 314/499/316 310/489/316
f 397/490/317 399/497/317 317/496/317 313/491/317
f 396/492/318 398/494/318 315/500/318 311/493/318
f 321/405/319 325/501/319 324/502/319 320/406/319
f 267/408/320 319/503/320 318/504/320 266/409/320
f 375/410/321 401/505/321 321/506/321 269/411/321
f 374/329/322 400/507/322 319/508/322 267/330/322
f 323/509/323 327/510/323 326/511/323 322/512/323
f 319/503/324 323/509/324 322/512/324 318/504/324
f 401/505/325 403/513/325 325/514/325 321/506/325
f 400/507/326 402/515/326 323/516/326 319/508/326
f 405/517/327 407/518/327 333/519/327 329/520/327
f 403/513/328 405/517/328 329/520/328 325/514/328
f 402/515/329 404/521/329 327/522/329 323/516/329
f 325/501/330 329/523/330 328/524/330 324/502/330
f 407/518/331 330/525/331 331/526/331 406/527/331
f 404/521/332 406/528/332 331/529/332 327/522/332
f 329/523/333 333/530/333 332/531/333 328/524/333
f 327/510/334 331/532/334 330/533/334 326/511/334
f 409/534/335 337/322/335 335/321/335 408/535/335
f 232/325/336 336/536/336 334/537/336 214/326/336
f 362/362/337 409/534/337 336/536/337 232/325/337
f 216/320/338 339/538/338 341/539/338 335/321/338
f 411/540/339 413/541/339 344/542/339 340/543/339
f 334/537/340 340/543/340 338/544/340 214/326/340
f 355/336/341 410/545/341 339/538/341 216/320/341
f 408/535/342 411/540/342 340/543/342 334/537/342
f 351/546/343 347/547/343 349/548/343 350/549/343
f 339/538/344 343/550/344 345/551/344 341/539/344
f 410/545/345 412/552/345 343/550/345 339/538/345
f 340/543/346 344/542/346 342/553/346 338/544/346
f 414/554/347 415/555/347 349/548/347 347/547/347
f 417/556/348 414/554/348 347/547/348 351/546/348
f 353/557/349 348/558/349 346/559/349 352/560/349
f 416/561/350 415/555/350 348/558/350 353/557/350
f 413/541/351 416/561/351 353/557/351 344/542/351
f 344/542/352 353/557/352 352/560/352 342/553/352
f 412/552/353 417/556/353 351/546/353 343/550/353
f 343/550/354 351/546/354 350/549/354 345/551/354
f 342/553/355 352/560/355 417/556/355 412/552/355
f 345/551/356 350/549/356 416/561/356 413/541/356
f 350/549/357 349/548/357 415/555/357 416/561/357
f 352/560/358 346/559/358 414/554/358 417/556/358
f 346/559/359 348/558/359 415/555/359 414/554/359
f 338/544/360 342/553/360 412/552/360 410/545/360
f 335/321/361 341/539/361 411/540/361 408/535/361
f 214/326/362 338/544/362 410/545/362 355/336/362
f 341/539/363 345/551/363 413/541/363 411/540/363
f 234/323/364 337/322/364 409/534/364 362/362/364
f 336/536/365 409/534/365 408/535/365 334/537/365
f 328/524/366 332/531/366 406/528/366 404/521/366
f 333/519/367 407/518/367 406/527/367 332/562/367
f 324/502/368 328/524/368 404/521/368 402/515/368
f 322/563/369 326/564/369 405/517/369 403/513/369
f 326/564/370 330/525/370 407/518/370 405/517/370
f 320/406/371 324/502/371 402/515/371 400/507/371
f 318/565/372 322/563/372 403/513/372 401/505/372
f 268/407/373 320/406/373 400/507/373 374/329/373
f 266/566/374 318/565/374 401/505/374 375/410/374
f 312/567/375 316/495/375 398/494/375 396/492/375
f 310/568/376 314/569/376 399/497/376 397/490/376
f 315/500/377 398/494/377 399/497/377 314/569/377
f 308/570/378 312/567/378 396/492/378 394/482/378
f 306/571/379 310/568/379 397/490/379 395/471/379
f 304/572/380 308/570/380 394/482/380 392/476/380
f 264/573/381 304/572/381 392/476/381 372/401/381
f 262/574/382 302/575/382 393/470/382 373/398/382
f 302/575/383 306/571/383 395/471/383 393/470/383
f 294/576/384 298/464/384 391/463/384 389/448/384
f 301/469/385 391/463/385 390/456/385 300/577/385
f 292/578/386 296/579/386 388/455/386 386/453/386
f 296/579/387 300/577/387 390/456/387 388/455/387
f 276/580/388 292/578/388 386/453/388 378/424/388
f 274/581/389 290/582/389 387/447/389 379/383/389
f 290/582/390 294/576/390 389/448/390 387/447/390
f 283/441/391 287/443/391 384/442/391 382/429/391
f 286/444/392 384/442/392 385/436/392 288/583/392
f 280/584/393 284/585/393 383/435/393 381/414/393
f 284/585/394 288/583/394 385/436/394 383/435/394
f 271/376/395 279/434/395 380/428/395 376/417/395
f 279/434/396 283/441/396 382/429/396 380/428/396
f 260/586/397 276/580/397 378/424/397 370/390/397
f 256/587/398 272/588/398 377/413/398 369/377/398
f 255/372/399 271/376/399 376/417/399 368/382/399
f 272/588/400 280/584/400 381/414/400 377/413/400
f 240/400/401 266/566/401 375/410/401 365/397/401
f 230/392/402 264/573/402 372/401/402 360/389/402
f 243/412/403 262/574/403 373/398/403 365/397/403
f 231/403/404 260/586/404 370/390/404 360/389/404
f 258/589/405 274/581/405 379/383/405 371/343/405
f 223/334/406 255/372/406 368/382/406 358/337/406
f 248/345/407 256/587/407 369/377/407 366/342/407
f 215/319/408 367/318/408 426/590/408 357/360/408
f 354/363/409 425/591/409 361/373/409 219/364/409
f 221/592/410 354/363/410 363/313/410 233/593/410
f 215/319/411 357/360/411 362/362/411 232/325/411
f 357/360/412 426/590/412 364/366/412 217/361/412
f 251/379/413 258/589/413 371/343/413 366/342/413
f 216/320/414 223/334/414 358/337/414 355/336/414
f 218/308/415 224/307/415 359/328/415 356/315/415
f 224/307/416 268/407/416 374/329/416 359/328/416
f 221/592/417 418/594/417 425/591/417 354/363/417
f 233/593/418 363/313/418 356/315/418 220/335/418
f 246/357/419 423/367/419 420/350/419 228/349/419
f 241/352/420 422/351/420 418/595/420 221/365/420
f 226/359/421 419/596/421 424/317/421 249/316/421
f 238/358/422 421/374/422 419/596/422 226/359/422
f 420/597/423 423/598/423 357/599/423
f 357/599/424 423/598/424 364/600/424
f 418/601/425 422/602/425 354/603/425
f 420/597/426 354/603/426 422/602/426
f 357/599/427 354/603/427 420/597/427
f 367/604/428 424/605/428 357/599/428
f 419/606/429 354/603/429 357/599/429
f 357/599/430 424/605/430 419/606/430
f 421/607/431 354/603/431 419/606/431
f 354/603/432 421/607/432 361/608/432
l 358 359
